<svg width="243" height="243" xmlns="http://www.w3.org/2000/svg" xml:space="preserve" version="1.1">
 <g>
  <title>Layer 1</title>
  <g id="svg_1">
   <path id="svg_2" fill="#003399" d="m40.5,0l161.9,0c22.4,0 40.5,18.2 40.5,40.5l0,162c0,22.4 -18.1,40.5 -40.5,40.5l-161.9,0c-22.4,0 -40.5,-18.1 -40.5,-40.5l0,-162c0,-22.4 18.1,-40.5 40.5,-40.5z" class="st0"/>
   <g id="svg_3">
    <rect id="svg_4" fill="#FFFF00" height="81" width="18.9" class="st1" y="121.4" x="20.2"/>
    <path id="svg_5" fill="#FFFF00" d="m123.7,139.9c-11.6,0 -20.2,3 -24.9,5.7l3.5,11.9c4.3,-2.6 11.6,-4.9 18.2,-4.9c11,0 13.4,5.6 13.4,8.4l0,0.7c-24.5,-0.1 -39.6,7.8 -39.6,23.5c0,9.2 7.3,18.6 20.8,18.6c8,0 14.8,-2.9 19,-7.8l0.2,0l2.1,6.3l15.4,0l0,-35.9c0,-14.5 -7.2,-26.5 -28.1,-26.5zm10.8,40.1c0,1 -0.1,2.1 -0.3,3.1c0,0.1 -0.2,0.6 -0.2,0.6c0,0.1 -0.1,0.2 -0.1,0.3c-1.7,4 -6.1,7.7 -12.1,7.7c-5.2,0 -8.8,-2.7 -8.8,-7.8c0,-5.7 4.9,-8.7 12.2,-9.8c1.7,-0.3 3.6,-0.4 5.6,-0.5c1.2,0 2.5,-0.1 3.7,0l0,6.4z" class="st1"/>
    <path id="svg_6" fill="#FFFF00" d="m204,141.7l0,35.6c0,1.4 -0.2,2.7 -0.6,3.9c-1.5,3.7 -5.2,7.8 -11.4,7.8c-7.7,0 -11.1,-5.7 -11.1,-15.1l0,-32.1l-18.4,0l0,35.5c0,4.8 0.6,8.8 1.7,12.1c1.1,3.3 2.7,6.1 4.7,8.2c2,2.2 4.4,3.8 7.1,4.8c2.8,1 5.8,1.5 9.2,1.5c2.9,0 5.5,-0.4 7.7,-1.1c2.2,-0.7 4.2,-1.6 5.8,-2.6c1.6,-1 3,-2.1 4.1,-3.2c1.1,-1.2 2,-2.2 2.6,-3.1l2.4,8.6l15,0l0,-60.7l-18.8,0l0,-0.1z" class="st1"/>
    <path id="svg_7" fill="#FFFF00" d="m56.8,121.4l0,20.3l-8.6,0l0,13.8l8.6,0l0,24.7c0,8.2 1.6,14.3 5.2,18c3,3.3 8.4,5.7 14.8,5.7c5.5,0 7.7,-0.8 10.2,-1.8l0,-14.1c-0.5,0.2 -2,0.5 -3.9,0.5c-6.5,0 -8.1,-4.1 -8.1,-11.5l0,-21.5l11.9,0l0,-13.8l-11.7,0l0,-20.3l-18.4,0z" class="st1"/>
    <polygon id="svg_8" fill="#FFFF00" clip-rule="evenodd" fill-rule="evenodd" points="197.00000002384186,121.40000149011613 185.6000061273575,137.79998775720597 198.7999878168106,137.79998775720597 214.7999878168106,121.40000149011613 " class="st2"/>
   </g>
  </g>
 </g>
</svg>